<?xml version="1.0" encoding="UTF-8" standalone="no"?>
<!-- Created with Inkscape (http://www.inkscape.org/) -->

<svg
   width="180mm"
   height="162mm"
   viewBox="0 0 180 162"
   version="1.1"
   id="svg1"
   inkscape:version="1.3.2 (091e20ef0f, 2023-11-25)"
   sodipodi:docname="2p.svg"
   inkscape:export-filename="../images/2p.png"
   inkscape:export-xdpi="200"
   inkscape:export-ydpi="200"
   xmlns:inkscape="http://www.inkscape.org/namespaces/inkscape"
   xmlns:sodipodi="http://sodipodi.sourceforge.net/DTD/sodipodi-0.dtd"
   xmlns="http://www.w3.org/2000/svg"
   xmlns:svg="http://www.w3.org/2000/svg">
  <sodipodi:namedview
     id="namedview1"
     pagecolor="#ffffff"
     bordercolor="#000000"
     borderopacity="0.25"
     inkscape:showpageshadow="2"
     inkscape:pageopacity="0.0"
     inkscape:pagecheckerboard="0"
     inkscape:deskcolor="#d1d1d1"
     inkscape:document-units="mm"
     inkscape:zoom="1.104894"
     inkscape:cx="478.77896"
     inkscape:cy="340.75667"
     inkscape:window-width="1916"
     inkscape:window-height="1030"
     inkscape:window-x="0"
     inkscape:window-y="0"
     inkscape:window-maximized="0"
     inkscape:current-layer="layer1"
     showgrid="false" />
  <defs
     id="defs1">
    <marker
       style="overflow:visible"
       id="marker52"
       refX="2"
       refY="0"
       orient="auto-start-reverse"
       inkscape:stockid="Empty semicircle"
       markerWidth="1"
       markerHeight="1"
       viewBox="0 0 1 1"
       inkscape:isstock="true"
       inkscape:collect="always"
       preserveAspectRatio="xMidYMid">
      <path
         style="fill:none;fill-rule:evenodd;stroke:context-stroke;stroke-width:1.08"
         d="m -0.7647042,-3.0274156 c 1.656,0 3,1.344 3,3 0,1.656 -1.344,3 -3,3"
         id="path52" />
    </marker>
    <marker
       style="overflow:visible"
       id="marker51"
       refX="2"
       refY="0"
       orient="auto-start-reverse"
       inkscape:stockid="Empty semicircle"
       markerWidth="1"
       markerHeight="1"
       viewBox="0 0 1 1"
       inkscape:isstock="true"
       inkscape:collect="always"
       preserveAspectRatio="xMidYMid">
      <path
         style="fill:none;fill-rule:evenodd;stroke:context-stroke;stroke-width:1.08"
         d="m -0.7647042,-3.0274156 c 1.656,0 3,1.344 3,3 0,1.656 -1.344,3 -3,3"
         id="path51" />
    </marker>
    <marker
       style="overflow:visible"
       id="marker38"
       refX="0"
       refY="0"
       orient="auto-start-reverse"
       inkscape:stockid="Colored triangle"
       markerWidth="1"
       markerHeight="1"
       viewBox="0 0 1 1"
       inkscape:isstock="true"
       inkscape:collect="always"
       preserveAspectRatio="xMidYMid">
      <path
         transform="scale(0.5)"
         style="fill:context-fill;fill-rule:evenodd;stroke:context-stroke;stroke-width:2"
         d="M 5.77,0 -2.88,5 V -5 Z"
         id="path38" />
    </marker>
    <marker
       style="overflow:visible"
       id="ColoredTriangle"
       refX="0"
       refY="0"
       orient="auto-start-reverse"
       inkscape:stockid="Colored triangle"
       markerWidth="1"
       markerHeight="1"
       viewBox="0 0 1 1"
       inkscape:isstock="true"
       inkscape:collect="always"
       preserveAspectRatio="xMidYMid">
      <path
         transform="scale(0.5)"
         style="fill:context-fill;fill-rule:evenodd;stroke:context-stroke;stroke-width:2"
         d="M 5.77,0 -2.88,5 V -5 Z"
         id="path37" />
    </marker>
    <marker
       style="overflow:visible"
       id="marker36"
       refX="0"
       refY="0"
       orient="auto-start-reverse"
       inkscape:stockid="Wide, heavy arrow"
       markerWidth="1"
       markerHeight="1"
       viewBox="0 0 1 1"
       inkscape:isstock="true"
       inkscape:collect="always"
       preserveAspectRatio="xMidYMid">
      <path
         style="fill:context-stroke;fill-rule:evenodd;stroke:none"
         d="m 1,0 -3,3 h -2 l 3,-3 -3,-3 h 2 z"
         id="path36" />
    </marker>
    <marker
       style="overflow:visible"
       id="ArrowWideHeavy"
       refX="0"
       refY="0"
       orient="auto-start-reverse"
       inkscape:stockid="Wide, heavy arrow"
       markerWidth="1"
       markerHeight="1"
       viewBox="0 0 1 1"
       inkscape:isstock="true"
       inkscape:collect="always"
       preserveAspectRatio="xMidYMid">
      <path
         style="fill:context-stroke;fill-rule:evenodd;stroke:none"
         d="m 1,0 -3,3 h -2 l 3,-3 -3,-3 h 2 z"
         id="path3" />
    </marker>
    <marker
       style="overflow:visible"
       id="marker34"
       refX="2"
       refY="0"
       orient="auto-start-reverse"
       inkscape:stockid="Empty semicircle"
       markerWidth="1"
       markerHeight="1"
       viewBox="0 0 1 1"
       inkscape:isstock="true"
       inkscape:collect="always"
       preserveAspectRatio="xMidYMid">
      <path
         style="fill:none;fill-rule:evenodd;stroke:context-stroke;stroke-width:1.08"
         d="m -0.7647042,-3.0274156 c 1.656,0 3,1.344 3,3 0,1.656 -1.344,3 -3,3"
         id="path34" />
    </marker>
    <marker
       style="overflow:visible"
       id="marker33"
       refX="2"
       refY="0"
       orient="auto-start-reverse"
       inkscape:stockid="Empty semicircle"
       markerWidth="1"
       markerHeight="1"
       viewBox="0 0 1 1"
       inkscape:isstock="true"
       inkscape:collect="always"
       preserveAspectRatio="xMidYMid">
      <path
         style="fill:none;fill-rule:evenodd;stroke:context-stroke;stroke-width:1.08"
         d="m -0.7647042,-3.0274156 c 1.656,0 3,1.344 3,3 0,1.656 -1.344,3 -3,3"
         id="path33" />
    </marker>
    <marker
       style="overflow:visible"
       id="marker31"
       refX="2"
       refY="0"
       orient="auto-start-reverse"
       inkscape:stockid="Empty semicircle"
       markerWidth="1"
       markerHeight="1"
       viewBox="0 0 1 1"
       inkscape:isstock="true"
       inkscape:collect="always"
       preserveAspectRatio="xMidYMid">
      <path
         style="fill:none;fill-rule:evenodd;stroke:context-stroke;stroke-width:1.08"
         d="m -0.7647042,-3.0274156 c 1.656,0 3,1.344 3,3 0,1.656 -1.344,3 -3,3"
         id="path31" />
    </marker>
    <marker
       style="overflow:visible"
       id="SemiCircleEmpty"
       refX="2"
       refY="0"
       orient="auto-start-reverse"
       inkscape:stockid="Empty semicircle"
       markerWidth="1"
       markerHeight="1"
       viewBox="0 0 1 1"
       inkscape:isstock="true"
       inkscape:collect="always"
       preserveAspectRatio="xMidYMid">
      <path
         style="fill:none;fill-rule:evenodd;stroke:context-stroke;stroke-width:1.08"
         d="m -0.7647042,-3.0274156 c 1.656,0 3,1.344 3,3 0,1.656 -1.344,3 -3,3"
         id="path30" />
    </marker>
    <marker
       style="overflow:visible"
       id="marker25"
       refX="0"
       refY="0"
       orient="auto"
       inkscape:stockid="Square"
       markerWidth="1"
       markerHeight="1"
       viewBox="0 0 1 1"
       inkscape:isstock="true"
       inkscape:collect="always"
       preserveAspectRatio="xMidYMid">
      <path
         transform="scale(0.5)"
         style="fill:context-stroke;fill-rule:evenodd;stroke:none"
         d="M -5,-5 V 5 H 5 V -5 Z"
         id="path25" />
    </marker>
    <marker
       style="overflow:visible"
       id="Square"
       refX="0"
       refY="0"
       orient="auto"
       inkscape:stockid="Square"
       markerWidth="1"
       markerHeight="1"
       viewBox="0 0 1 1"
       inkscape:isstock="true"
       inkscape:collect="always"
       preserveAspectRatio="xMidYMid">
      <path
         transform="scale(0.5)"
         style="fill:context-stroke;fill-rule:evenodd;stroke:none"
         d="M -5,-5 V 5 H 5 V -5 Z"
         id="path24" />
    </marker>
    <marker
       style="overflow:visible"
       id="Dot"
       refX="0"
       refY="0"
       orient="auto"
       inkscape:stockid="Dot"
       markerWidth="1"
       markerHeight="1"
       viewBox="0 0 1 1"
       inkscape:isstock="true"
       inkscape:collect="always"
       preserveAspectRatio="xMidYMid">
      <path
         transform="scale(0.5)"
         style="fill:context-stroke;fill-rule:evenodd;stroke:none"
         d="M 5,0 C 5,2.76 2.76,5 0,5 -2.76,5 -5,2.76 -5,0 c 0,-2.76 2.3,-5 5,-5 2.76,0 5,2.24 5,5 z"
         sodipodi:nodetypes="sssss"
         id="path17" />
    </marker>
    <marker
       style="overflow:visible"
       id="Dot-3"
       refX="0"
       refY="0"
       orient="auto"
       inkscape:stockid="Dot"
       markerWidth="1"
       markerHeight="1"
       viewBox="0 0 1 1"
       inkscape:isstock="true"
       inkscape:collect="always"
       preserveAspectRatio="xMidYMid">
      <path
         transform="scale(0.5)"
         style="fill:context-stroke;fill-rule:evenodd;stroke:none"
         d="M 5,0 C 5,2.76 2.76,5 0,5 -2.76,5 -5,2.76 -5,0 c 0,-2.76 2.3,-5 5,-5 2.76,0 5,2.24 5,5 z"
         sodipodi:nodetypes="sssss"
         id="path17-8" />
    </marker>
    <marker
       style="overflow:visible"
       id="Square-3"
       refX="0"
       refY="0"
       orient="auto"
       inkscape:stockid="Square"
       markerWidth="1"
       markerHeight="1"
       viewBox="0 0 1 1"
       inkscape:isstock="true"
       inkscape:collect="always"
       preserveAspectRatio="xMidYMid">
      <path
         transform="scale(0.5)"
         style="fill:context-stroke;fill-rule:evenodd;stroke:none"
         d="M -5,-5 V 5 H 5 V -5 Z"
         id="path24-4" />
    </marker>
    <marker
       style="overflow:visible"
       id="marker25-8"
       refX="0"
       refY="0"
       orient="auto"
       inkscape:stockid="Square"
       markerWidth="1"
       markerHeight="1"
       viewBox="0 0 1 1"
       inkscape:isstock="true"
       inkscape:collect="always"
       preserveAspectRatio="xMidYMid">
      <path
         transform="scale(0.5)"
         style="fill:context-stroke;fill-rule:evenodd;stroke:none"
         d="M -5,-5 V 5 H 5 V -5 Z"
         id="path25-0" />
    </marker>
    <marker
       style="overflow:visible"
       id="ArrowWideHeavy-2"
       refX="0"
       refY="0"
       orient="auto-start-reverse"
       inkscape:stockid="Wide, heavy arrow"
       markerWidth="1"
       markerHeight="1"
       viewBox="0 0 1 1"
       inkscape:isstock="true"
       inkscape:collect="always"
       preserveAspectRatio="xMidYMid">
      <path
         style="fill:context-stroke;fill-rule:evenodd;stroke:none"
         d="m 1,0 -3,3 h -2 l 3,-3 -3,-3 h 2 z"
         id="path3-3" />
    </marker>
    <marker
       style="overflow:visible"
       id="marker36-2"
       refX="0"
       refY="0"
       orient="auto-start-reverse"
       inkscape:stockid="Wide, heavy arrow"
       markerWidth="1"
       markerHeight="1"
       viewBox="0 0 1 1"
       inkscape:isstock="true"
       inkscape:collect="always"
       preserveAspectRatio="xMidYMid">
      <path
         style="fill:context-stroke;fill-rule:evenodd;stroke:none"
         d="m 1,0 -3,3 h -2 l 3,-3 -3,-3 h 2 z"
         id="path36-6" />
    </marker>
  </defs>
  <g
     inkscape:label="Слой 1"
     inkscape:groupmode="layer"
     id="layer1">
    <path
       d="m 76.848453,14.039509 c -0.05943,0.0045 -0.08544,0.01188 -0.148828,0.01602 -2.996483,1.551639 -0.702691,0.486016 0.148828,-0.01602 z"
       style="fill:none;fill-rule:evenodd;stroke:#000000;stroke-width:0.499999;stroke-linejoin:bevel"
       id="path15" />
    <path
       d="m 101.46865,20.920226 c -0.069,8.85e-4 -0.10454,0.0169 -0.0475,0.0739 0.0497,0.04974 0.0537,0.0011 0.0475,-0.0739 z"
       style="fill:none;fill-rule:evenodd;stroke:#000000;stroke-width:0.499999;stroke-linejoin:bevel"
       id="path14" />
    <path
       d="M 38.608927,13.521194 V 131.47059 c 0.917619,-0.73891 2.440975,-1.83388 2.645833,-1.93529 0.27982,-0.13851 0.771867,0.14311 1.049032,0 0.361152,-0.18647 1.245532,-0.63274 1.76475,-0.33434 1.887056,1.08452 0.341645,1.18215 3.192053,1.48001 2.177715,-0.33618 3.620979,-1.94555 5.392952,-2.98173 0.742135,-0.43397 1.616184,-0.60429 2.370915,-1.01596 0.535647,-0.29218 1.710177,-1.40108 2.370398,-1.69344 0.661984,-0.29314 1.395794,-0.40035 2.061373,-0.68522 1.346911,-0.57651 2.526261,-2.87577 4.054533,-3.38119 1.931248,-0.63868 3.796621,-1.70796 5.391919,-3.03599 0.512847,-0.42693 2.968186,-3.25149 3.096968,-3.25149 5.155436,0 5.867502,2.04667 9.468673,4.73047 0.828383,0.61734 -0.43365,0.015 0.956531,0.95653 0.402337,0.2725 1.008273,-0.18457 1.457792,0 0.29536,0.12127 0.3919,0.53468 0.677478,0.67747 0.380857,0.19043 3.31149,0.30541 3.617867,0.30541 0.07629,0 1.092198,-0.15021 1.159102,0.16382 0.153406,0.72001 -0.146824,1.53571 0,2.25722 0.09118,0.44807 0.839754,1.81483 0.552938,2.35335 -0.264371,0.49637 -1.065838,0.59256 -1.497583,0.87953 -0.2411,0.16026 -0.460368,0.62346 -0.731738,0.73174 -1.59583,0.63674 -5.608986,-1.06936 -7.165971,-1.45779 -1.644823,-0.41035 -3.299516,-0.26883 -4.723743,-1.01596 -0.241696,-0.1268 -0.689248,0.0865 -0.949812,0 -0.673481,-0.22361 -1.373497,-1.28986 -2.173511,-0.99632 -1.012705,0.37156 -1.621874,0.96796 -2.493905,1.46296 -0.322696,0.18317 -0.975806,-0.19365 -1.290877,0 -1.174183,0.72166 -2.39796,1.31906 -3.542419,1.95543 -0.307157,0.17079 -0.976922,0.0951 -1.30173,0.26562 -0.707709,0.37147 -1.173812,1.19763 -1.898592,1.58905 -0.269393,0.14549 -0.979868,0.38723 -1.198376,0.63614 -0.06048,0.0689 0.182553,0.10391 0.194303,0.19482 0.028,0.21663 -0.590476,0.005 -0.6165,0.2222 -0.02104,0.17522 0.316834,0.2074 0.374654,0.37414 0.434115,1.25192 0.405617,2.54281 -0.353466,3.68143 -0.299432,0.44915 -3.028606,3.84826 -3.361036,4.07314 -1.248254,0.84441 -3.834573,1.23131 -4.999178,2.20555 -0.996724,0.8338 -1.383963,1.80522 -2.750219,2.07016 -0.705615,0.13683 -1.44278,-0.0853 -2.156458,0 -0.492224,0.0588 -2.879024,1.32225 -3.142961,1.14825 -1.247755,-0.82258 -1.033144,-2.60591 -1.955436,-3.23185 -0.312165,-0.21186 -1.016646,0.16552 -1.361157,0 -0.06567,-0.0315 -1.133029,-0.96658 -2.185396,-1.92133 V 148.9858 H 174.07352 V 13.521194 h -27.85411 c 0.12075,0.115122 0.2349,0.238756 0.38447,0.317294 0.20161,0.105867 0.89982,0.115137 0.99632,0.412894 0.20309,0.626433 -0.10901,1.1584 0.2589,1.707906 0.41612,0.621528 0.53055,0.122721 1.32705,0.649573 0.0105,0.007 -0.01,0.618735 0,0.641305 0.13656,0.31631 0.69327,0.475599 0.8015,0.802018 0.0701,0.211368 0,0.444977 0,0.667659 0.11289,0.112884 0.2865,0.188235 0.339,0.338998 0.23038,0.661416 -0.0978,1.100898 -0.339,1.583366 -0.19757,0.395137 0.26011,0.885119 0.22221,1.076937 -0.11578,0.58587 -1.33318,1.061779 -1.59525,1.596285 -0.23527,0.479862 0,1.069081 0,1.603519 0,0.315282 -0.10472,0.648295 0,0.945679 0.053,0.150579 0.2676,0.196208 0.339,0.338997 0.15027,0.300535 -0.10701,0.689178 0,1.007691 0.0508,0.151331 0.28798,0.187546 0.33848,0.338997 0.16228,0.486814 0.0993,1.183512 0.33848,1.662948 0.20755,0.415994 0.77707,0.57093 0.98547,0.986503 0.14646,0.292082 -0.1684,0.700288 0,0.980302 0.11248,0.187045 0.2758,0.350819 0.46302,0.463021 0.0885,0.05304 0.26664,-0.09385 0.30954,0 0.13802,0.301991 -0.23226,0.759037 0,0.996321 0.85672,0.875235 0.4874,-0.404346 0.94981,0.982886 0.14948,0.44844 0.21163,3.968658 0,4.5837 -0.17853,0.518857 -0.52369,1.079835 -0.67696,1.69292 -0.10876,0.43506 0.14299,0.920608 0,1.345654 -0.21906,0.651203 -1.06883,1.225069 -1.31103,1.966805 -0.49459,1.514672 -0.97798,2.956424 -1.64951,4.299479 -0.74389,1.487769 -0.2942,3.276012 -1.01596,4.659147 -0.18343,0.351504 -0.67837,0.56927 -0.89969,0.899687 -0.13785,0.205796 -0.2261,0.440981 -0.33899,0.661458 0,0.107151 0.0489,0.226088 0,0.321428 -0.44236,0.862264 -1.98024,1.937497 -1.98024,2.963126 0,1.279737 0.37155,3.027721 1.65002,3.66696 0.45593,0.227962 0.25099,-0.422531 0.64286,0.334863 0.0991,0.191518 -0.0674,0.442178 0,0.646988 0.21029,0.63862 0.44352,1.21426 0.32246,1.19166 -0.14437,-0.0269 -0.1822,-0.24208 -0.31213,-0.31058 -0.49279,-0.25964 -1.5983,-0.11264 -2.1177,-0.28577 -0.68953,-0.22984 -5.91507,-5.560873 -5.80636,-6.144841 0.083,-0.445643 0.15613,-0.897916 0.30954,-1.324467 0.0771,-0.214455 3.03287,-0.650709 2.51251,-1.848983 -0.34447,-0.793269 -1.28822,-1.233737 -1.74511,-1.995227 -0.25974,-0.432894 -0.39745,-0.934391 -0.67748,-1.354439 -0.66609,-0.999136 -3.04577,-2.388373 -3.37447,-3.374471 -0.19843,-0.595291 0.19843,-1.389086 0,-1.984375 -0.30338,-0.910102 -0.56349,-0.459361 -0.32298,-1.661914 0.30865,-1.543251 1.15423,-2.715809 1.69344,-4.063835 0.53208,-1.330194 0.92928,-2.475201 1.65519,-3.685046 0.37966,-0.632764 1.02435,-1.376371 1.35031,-2.0283 0.40146,-0.802907 -0.14368,-2.514709 0,-3.373438 0.48948,-2.925376 0.13015,0.504159 0.67748,-1.685168 0.14428,-0.577117 0,-1.434765 0,-2.031917 0,-3.6641 -0.16634,-7.363548 0.24598,-10.999846 0.37003,-0.277155 0.97996,-0.762517 1.64641,-1.182357 H 97.592406 c 0.32809,0.153718 0.71973,0.307326 0.99115,0.510564 0.37838,0.283316 0.60981,0.740201 1.00304,1.002522 1.135474,0.757484 2.810204,1.355987 3.543964,2.602425 0.16221,0.275545 -0.84128,1.426474 -0.98288,1.717208 -0.22667,0.465377 -0.0413,0.366927 0.16071,0.208256 -0.17291,0.158397 -0.34969,0.319204 -0.83819,0.807703 -0.0778,0.114477 -0.0139,0.402823 -0.002,0.550354 0.35115,-0.0045 2.04194,0.591178 2.31511,0.591178 2.11836,0 5.32046,-0.405685 7.3489,0 1.17518,0.235037 1.42054,0.715363 2.32286,1.321367 0.22791,0.153072 0.74333,-0.12438 0.99064,0 0.66699,0.33547 1.07405,1.273963 1.69343,1.693436 0.318,0.215368 0.87056,0.04138 1.3162,0.338481 0.37441,0.249605 0.61566,0.814037 1.01596,1.015959 0.13841,0.06982 1.83336,0.596116 1.81746,1.152384 -0.0161,0.563927 -0.45782,0.228549 -0.66921,0.334863 -0.60912,0.306353 -0.93015,1.299577 -1.55804,1.558045 -1.22981,0.506219 -2.29584,0.947023 -3.45561,1.7663 -0.92999,0.656965 -1.63789,1.737768 -2.73316,2.048971 -4.448,1.263806 2.24198,-1.590145 -3.0887,0 -0.63417,0.189172 -1.06829,0.832888 -1.70274,1.021126 -0.0129,0.0038 -3.43087,-0.0038 -3.45767,0 -0.70229,0.09927 -1.20187,0.475633 -2.02262,0.338481 -1.579,-0.263855 -3.285484,-0.626595 -4.729424,-1.349272 -0.26471,-0.132488 -0.65977,-0.578018 -0.94464,-0.643888 -0.82422,-0.190584 -2.27638,0.373092 -3.02256,0 -0.49433,-0.247173 -0.84975,-0.71694 -1.32963,-0.991154 -0.21328,-0.121878 -4.987164,-3.159147 -5.150073,-3.054594 -0.977315,0.627237 -1.809764,1.469223 -2.809648,2.059823 -0.623687,0.368392 -3.614768,-0.152874 -4.532023,0 -0.810627,0.135104 -1.630335,0.320152 -2.370398,0.677478 -0.785712,0.379361 -1.483863,1.594203 -1.924947,2.256709 -0.330004,0.495662 -0.975991,0.902573 -1.348238,1.349272 -1.599457,1.919345 -3.466787,3.321289 -5.906616,4.151168 -1.471743,0.500557 -3.986049,0.738237 -5.447213,0.0078 -0.285578,-0.14279 -0.403977,-0.512216 -0.677478,-0.676961 -0.301839,-0.181819 -0.668278,-0.223301 -1.002523,-0.334863 -0.11068,0 -0.233249,0.04942 -0.332279,0 -1.539641,-0.768292 -1.926913,-2.941321 -3.042709,-4.057117 -0.695938,-0.695938 -1.40122,-0.905066 -2.031917,-1.693437 -1.249145,-1.561433 -3.579926,-5.996941 -3.725354,-7.788672 -0.06685,-0.82364 0,-1.653086 0,-2.479435 V 19.89088 c 0,-0.209009 -0.177864,-0.517579 0,-0.627351 0.580119,-0.358045 1.363638,0 2.045353,0 2.358669,0 4.721816,-0.144529 7.076054,0 1.757449,0.107889 3.627524,1.030858 5.418274,0.677478 1.425375,-0.281281 1.887656,-1.603183 3.039091,-2.365231 1.044791,-0.691457 0.765623,-0.07178 2.370398,-0.677478 1.077406,-0.406645 2.043853,-1.606737 3.062345,-2.026233 3.068364,-1.263793 3.151859,-1.179596 2.563151,-0.832507 1.288608,-0.0974 1.691207,-0.275312 1.756482,-0.518315 z"
       style="fill:none;fill-rule:evenodd;stroke:#000000;stroke-width:0.8;stroke-linejoin:bevel;stroke-dasharray:none"
       id="path19" />
    <path
       d="M 146.21941,13.521194 H 142.816 c -0.66645,0.41984 -1.27638,0.905202 -1.64641,1.182357 -0.41232,3.636301 -0.24598,7.335743 -0.24598,10.999846 0,0.597153 0.14428,1.4548 0,2.031917 -0.54733,2.189329 -0.188,-1.240211 -0.67748,1.685168 -0.14368,0.85873 0.40146,2.57053 0,3.373438 -0.32596,0.65193 -0.97065,1.395536 -1.35031,2.0283 -0.72591,1.209846 -1.12311,2.35485 -1.65519,3.685046 -0.53921,1.348027 -1.38479,2.520583 -1.69344,4.063835 -0.24051,1.202554 0.0196,0.751811 0.32298,1.661914 0.19843,0.59529 -0.19843,1.389084 0,1.984375 0.3287,0.986099 2.70838,2.375334 3.37447,3.374471 0.28003,0.420049 0.41774,0.921544 0.67748,1.354439 0.45689,0.761491 1.40064,1.201957 1.74511,1.995227 0.52036,1.198275 -2.43539,1.634528 -2.51251,1.848983 -0.15341,0.426551 -0.22658,0.878824 -0.30954,1.324467 -0.10871,0.583969 5.11683,5.915001 5.80636,6.144841 0.5194,0.17313 1.62491,0.0261 2.1177,0.28577 0.12993,0.0685 0.16776,0.28367 0.31213,0.31058 0.12106,0.0226 -0.11217,-0.55304 -0.32246,-1.19166 -0.0674,-0.20481 0.0991,-0.45547 0,-0.646988 -0.39187,-0.757395 -0.18693,-0.106901 -0.64286,-0.334863 -1.27847,-0.639239 -1.65002,-2.387222 -1.65002,-3.66696 0,-1.02563 1.53788,-2.100861 1.98024,-2.963126 0.0489,-0.09534 0,-0.214277 0,-0.321428 0.11289,-0.220477 0.20114,-0.455662 0.33899,-0.661458 0.22132,-0.330417 0.71626,-0.548183 0.89969,-0.899687 0.72176,-1.383137 0.27207,-3.171376 1.01596,-4.659147 0.67153,-1.343056 1.15492,-2.784805 1.64951,-4.299479 0.2422,-0.741737 1.09197,-1.315601 1.31103,-1.966805 0.14299,-0.425046 -0.10876,-0.910593 0,-1.345654 0.15327,-0.613085 0.49843,-1.174062 0.67696,-1.69292 0.21163,-0.615042 0.14948,-4.13526 0,-4.5837 -0.46241,-1.387233 -0.0931,-0.10765 -0.94981,-0.982886 -0.23226,-0.237285 0.13802,-0.694329 0,-0.996321 -0.0429,-0.09385 -0.22104,0.05304 -0.30954,0 -0.18722,-0.112202 -0.35054,-0.275976 -0.46302,-0.463021 -0.1684,-0.280014 0.14646,-0.68822 0,-0.980302 -0.2084,-0.415573 -0.77792,-0.570508 -0.98547,-0.986503 -0.23921,-0.479436 -0.1762,-1.176134 -0.33848,-1.662948 -0.0505,-0.151451 -0.28764,-0.187666 -0.33848,-0.338997 -0.10701,-0.318513 0.15027,-0.707156 0,-1.007691 -0.0714,-0.14279 -0.28597,-0.188418 -0.339,-0.338997 -0.10472,-0.297384 0,-0.630397 0,-0.945679 0,-0.534439 -0.23527,-1.123656 0,-1.603519 0.26207,-0.534506 1.47947,-1.010414 1.59525,-1.596285 0.0379,-0.191818 -0.41978,-0.681799 -0.22221,-1.076937 0.24124,-0.482468 0.56938,-0.921949 0.339,-1.583366 -0.0525,-0.150763 -0.22611,-0.226114 -0.339,-0.338998 0,-0.222683 0.0701,-0.456291 0,-0.667659 -0.10823,-0.326419 -0.66494,-0.485707 -0.8015,-0.802018 -0.01,-0.02257 0.0105,-0.634336 0,-0.641305 -0.7965,-0.526853 -0.91093,-0.02804 -1.32705,-0.649573 -0.36791,-0.549507 -0.0558,-1.081473 -0.2589,-1.707906 -0.0965,-0.297758 -0.79471,-0.307027 -0.99632,-0.412894 -0.14957,-0.07854 -0.26372,-0.202172 -0.38447,-0.317294 z"
       style="fill:#b2b2b2;fill-rule:evenodd;stroke:#000000;stroke-width:0.8;stroke-linejoin:bevel;stroke-dasharray:none"
       id="path18" />
    <path
       d="m 102.30839,19.562169 c 0.247,-0.193994 0.39633,-0.36305 0,0 z"
       style="fill:#b2b2b2;fill-rule:evenodd;stroke:#000000;stroke-width:0.499999;stroke-linejoin:bevel"
       id="path13" />
    <path
       d="M 97.592406,13.521194 H 78.604935 c -0.06527,0.243003 -0.467872,0.420919 -1.756482,0.518315 -0.851519,0.502036 -3.145311,1.567659 -0.148828,0.01602 0.06338,-0.0041 0.0894,-0.01153 0.148828,-0.01602 0.588708,-0.347089 0.505219,-0.43129 -2.563151,0.832507 -1.018494,0.419496 -1.984937,1.619586 -3.062345,2.026233 -1.604777,0.605695 -1.325605,-0.01398 -2.370398,0.677478 -1.151437,0.762048 -1.613714,2.08395 -3.039091,2.365231 -1.790754,0.353382 -3.660821,-0.569587 -5.418274,-0.677478 -2.354242,-0.144529 -4.717381,0 -7.076054,0 -0.681717,0 -1.465232,-0.358045 -2.045353,0 -0.177864,0.109774 0,0.41834 0,0.627351 v 1.642794 c 0,0.826351 -0.06685,1.655793 0,2.479435 0.145428,1.791733 2.476207,6.227235 3.725354,7.788672 0.630699,0.788371 1.335977,0.997497 2.031917,1.693437 1.115798,1.115798 1.503065,3.288825 3.042708,4.057117 0.09903,0.04942 0.2216,0 0.33228,0 0.334245,0.111562 0.700684,0.153044 1.002523,0.334863 0.273501,0.164745 0.3919,0.534171 0.677478,0.676961 1.461168,0.730584 3.975467,0.492808 5.447212,-0.0078 2.439835,-0.829881 4.307158,-2.231819 5.906617,-4.151168 0.372249,-0.446699 1.018234,-0.85361 1.348238,-1.349272 0.441086,-0.662508 1.139233,-1.877346 1.924947,-2.256709 0.740065,-0.357326 1.559769,-0.542372 2.370398,-0.677478 0.917257,-0.152874 3.908334,0.368394 4.532023,0 0.999886,-0.5906 1.83233,-1.432584 2.809647,-2.059823 0.162909,-0.104553 4.936797,2.932716 5.150077,3.054594 0.47988,0.274214 0.83528,0.743981 1.32963,0.991154 0.74618,0.373094 2.19834,-0.190584 3.02256,0 0.28487,0.06587 0.67993,0.5114 0.94464,0.643888 1.44394,0.722679 3.150424,1.085417 4.729424,1.349272 0.82075,0.137152 1.32032,-0.239207 2.02261,-0.338481 0.0268,-0.0038 3.44475,0.0038 3.45767,0 0.63445,-0.188238 1.06857,-0.831954 1.70274,-1.021126 5.3307,-1.590147 -1.3593,1.263808 3.0887,0 1.09529,-0.311203 1.80318,-1.392006 2.73317,-2.048971 1.15977,-0.819279 2.22579,-1.260079 3.4556,-1.7663 0.62791,-0.258468 0.94893,-1.251692 1.55805,-1.558045 0.21139,-0.106316 0.65313,0.229064 0.66921,-0.334863 0.0159,-0.55627 -1.67905,-1.082563 -1.81746,-1.152384 -0.4003,-0.201922 -0.64155,-0.766354 -1.01596,-1.015959 -0.44564,-0.297098 -0.9982,-0.123113 -1.3162,-0.338481 -0.61938,-0.419475 -1.02643,-1.357964 -1.69344,-1.693436 -0.24731,-0.12438 -0.76273,0.153072 -0.99064,0 -0.90232,-0.606004 -1.14767,-1.08633 -2.32285,-1.321367 -2.02844,-0.405687 -5.23053,0 -7.34891,0 -0.27317,0 -1.96395,-0.595684 -2.3151,-0.591178 0.006,0.07496 0.002,0.123633 -0.0475,0.0739 -0.057,-0.057 -0.0214,-0.07301 0.0475,-0.0739 -0.0121,-0.147531 -0.0762,-0.435877 0.002,-0.550354 0.4885,-0.488499 0.66528,-0.649306 0.83819,-0.807703 -0.20202,0.158671 -0.38738,0.257121 -0.16071,-0.208256 0.1416,-0.290736 1.14509,-1.441663 0.98288,-1.717208 -0.73376,-1.246442 -2.40849,-1.844941 -3.543964,-2.602425 -0.39323,-0.262323 -0.62466,-0.719204 -1.00304,-1.002522 -0.27142,-0.203238 -0.66306,-0.356846 -0.99115,-0.510564 z"
       style="fill:#b2b2b2;fill-rule:evenodd;stroke:#000000;stroke-width:0.8;stroke-linejoin:bevel;stroke-dasharray:none"
       id="path12" />
    <path
       style="fill:#b2b2b2;fill-opacity:1;fill-rule:evenodd;stroke:#000000;stroke-width:0.8;stroke-linejoin:bevel;stroke-opacity:1;stroke-dasharray:none"
       d="m 75.273521,46.385167 c 0.350398,2.08666 3.507727,2.79495 4.006972,4.762328 0.369284,1.455251 0.105071,9.368944 -0.338657,11.143853 -0.248163,0.99265 -1.274109,1.1936 -1.693272,2.03192 -0.100965,0.20194 0.07139,0.46313 0,0.67731 -0.318156,0.95447 -2.228091,1.59926 -2.971162,1.97372 -0.223396,0.11258 -0.668036,-0.13003 -0.881031,0 -1.051706,0.64206 -2.438543,1.89067 -3.014819,3.01482 -0.153527,0.29949 -0.160517,0.66561 -0.338656,0.95114 -0.169002,0.2709 -0.485256,0.42224 -0.677309,0.67731 -1.05415,1.40005 -1.015963,3.32596 -1.015963,4.9978 0,0.33866 -0.107093,0.69469 0,1.01597 0.19662,0.58986 0.880234,1.04643 1.015963,1.69327 0.08703,0.41473 -0.18981,0.89241 0,1.27128 0.630367,1.25824 2.207172,2.96744 3.578362,3.30188 0.01572,0.004 1.335646,-0.004 1.345359,0 1.20791,0.48316 1.404175,2.24768 2.976454,1.69327 1.259948,-0.44428 3.184514,-1.32423 4.47262,-0.34262 0.507907,0.38705 0.855977,0.9557 1.354619,1.35462 1.294582,1.03566 3.470463,2.41607 4.038719,4.03872 0.144793,0.41345 0,1.18656 0,1.61919 0,0.89674 -0.05488,1.06158 -0.67731,1.68401 -0.259654,0.25966 -0.950579,1.14929 -1.348002,1.348 -0.298563,0.14928 -0.677687,-0.0814 -1.001413,0 -1.001514,0.25186 -2.320565,0.67731 -3.386545,0.67731 -0.465436,0 -0.893858,-0.27283 -1.354616,-0.33865 -1.092407,-0.15606 -2.505993,0 -3.590269,0 -3.25188,0 -0.60429,-0.25242 -2.37058,0.33865 -1.662879,0.55647 -4.574151,-0.34825 -6.340511,0 -0.374381,0.0738 -0.582221,0.55937 -0.957758,0.62704 -1.385128,0.24962 -3.384581,-0.49364 -4.709414,0 -1.519094,0.56603 -3.156921,0.26185 -4.775559,0.67334 -0.178901,0.0455 -0.527027,-0.0808 -0.699797,0 -0.549614,0.25718 -0.658278,1.04262 -1.123116,1.43267 -0.390502,0.32767 -0.943483,0.40147 -1.367846,0.68392 -0.708057,0.47128 -1.48264,2.104862 -1.65491,2.931482 -0.06378,0.30606 0.08725,0.6377 0,0.93792 0.335129,1.1681 -1.050738,1.23456 -1.328161,1.97901 -0.05096,0.13673 0.230489,0.1869 0.309552,0.30955 0.208409,0.3233 0.201067,0.85182 0.623072,1.1046 0.564113,0.33789 3.65202,0.96304 4.316521,0.96304 0.443312,0 1.228969,0.18435 1.598025,0 1.78172,-0.88997 3.512302,-2.0551 5.418474,-2.70923 1.392504,-0.47786 7.648704,0.27034 8.785172,0.34527 2.255237,0.14867 4.584456,0 6.837913,0 3.67122,0 7.207109,-0.31778 10.790642,-1.03449 0.221384,-0.0443 0.475374,0.10097 0.677309,0 0.285578,-0.14279 0.403524,-0.51303 0.67731,-0.67731 0.306103,-0.18366 0.677313,-0.22576 1.015963,-0.33865 0.45154,-0.22577 0.93457,-0.39728 1.35462,-0.67731 0.79946,-0.53298 0.94016,-1.2642 1.60067,-1.91022 1.3045,-1.275892 3.06478,-1.229462 4.71206,-1.678722 0.48705,-0.13284 0.864854,-0.55487 1.354624,-0.67731 0.43806,-0.10952 0.9076,0.0639 1.3546,0 0.35339,-0.0505 0.6701,-0.25029 1.01597,-0.33866 0.8993,-0.22976 2.39128,0 3.31908,0 2.37058,0 4.74116,0 7.11174,0 0.67731,0 1.38938,-0.21418 2.03193,0 0.5698,0.18994 0.077,0.48113 0.64688,0.33866 1.28287,-0.32072 2.54113,-1.118 3.59556,-1.68005 0.41053,-0.21882 0.65791,-0.6579 0.98686,-0.98686 0.17836,-0.17836 0.81274,-0.65256 0.89426,-0.89426 0.75087,-2.22614 -3.11475,-4.37809 -4.50305,-5.76638 -1.04622,-1.04623 -2.8196,-2.30293 -4.2808,-2.66823 -0.21903,-0.0548 -0.46313,0.0714 -0.67731,0 -0.15145,-0.0505 -0.18378,-0.29994 -0.33865,-0.33865 -0.87991,-0.21998 -2.1624,0.0984 -3.0479,0 -0.57208,-0.0636 -1.12119,-0.27509 -1.69327,-0.33866 -0.63986,-0.0711 -1.66791,0.16824 -2.34015,0 -1.25827,-0.31491 -3.57463,-0.63955 -4.894614,-0.30955 -0.15487,0.0387 -0.1889,0.28333 -0.33865,0.33865 -0.34257,0.12655 -6.52451,0.22357 -7.18451,0 -1.31948,-0.44695 -1.18544,-3.21056 -0.96437,-4.3099 0.49206,-2.44686 1.63831,-3.70231 3.97522,-4.64592 0.20913,-0.0844 0.59281,0.10845 0.79108,0 0.80733,-0.44158 1.35288,-1.03539 1.98827,-1.67078 0.51721,-0.51721 1.11099,-0.96351 1.35065,-1.68534 0.16344,-0.49224 0.67202,-1.52887 0.67202,-2.02267 0,-0.81767 -0.41951,-0.50035 -0.67731,-1.01596 -0.4727,-0.9454 -0.75336,-1.8104 -1.34139,-2.69072 -0.33494,-0.50142 -0.96907,-0.80318 -1.30435,-1.30434 -0.17106,-0.2557 0,-0.97607 0,-1.30435 0,-0.73028 -0.0722,-1.33386 0.33866,-2.0187 0.93856,-1.56427 6.650924,-3.192316 8.465034,-4.402509 0.26561,-0.177189 0.45154,-0.451541 0.67731,-0.67731 0.45154,-0.112884 0.93832,-0.130505 1.35461,-0.338656 0.7057,-0.352848 2.28524,-2.036535 3.31776,-1.693272 1.9572,0.650679 2.39292,2.782951 3.03863,4.397219 0.10879,0.271973 2.57487,2.947048 2.64706,2.985718 1.39934,0.74943 3.1513,0.45567 4.19482,2.02399 1.41523,2.12698 0.11978,0.57422 1.02125,2.38248 0.21118,0.4236 0.71922,0.62604 1.00406,1.00406 0.44918,0.59612 0.56191,1.39953 1.00141,2.00283 0.3854,0.52902 3.65373,0.41713 4.34298,0.64688 0.53768,0.17922 1.34571,1.00122 1.98034,0.67334 0.42272,-0.2184 0.77479,-0.59537 1.00935,-1.00935 0.25266,-0.44594 -0.24846,-3.05162 -0.54106,-3.34421 -0.17848,-0.17849 -0.46633,-0.20008 -0.6773,-0.33866 -0.39678,-0.26062 -0.45653,-0.77697 -0.62705,-1.13105 -0.17925,-0.37224 -0.72472,-0.56656 -0.92733,-0.92733 -0.3391,-0.60385 -0.0371,-1.82578 -0.33865,-2.5796 -0.93221,-2.330506 -2.65545,-4.011391 -4.38928,-5.745219 -0.65803,-0.658027 -2.26362,-1.479349 -2.70924,-2.370582 -0.10096,-0.201932 0.0548,-0.458279 0,-0.677307 -0.20439,-0.817581 -0.92055,-1.045974 -1.34271,-1.680046 -0.41464,-0.622779 -0.63351,-1.654013 -1.348,-2.025311 -0.28994,-0.150672 -0.66331,0.07947 -0.98025,0 -0.58756,-0.147323 -1.0974,-0.528399 -1.68533,-0.674664 -0.65728,-0.163515 -1.36384,0.11135 -2.03193,0 -0.9762,-0.1627 -1.63136,-1.135687 -2.66161,-1.338744 -2.43731,-0.480372 -7.82977,0.07655 -10.18873,0.338656 -0.673174,0.0748 -1.374844,-0.164271 -2.031934,0 -0.50706,0.126765 -0.44491,0.81129 -1.10459,0.642914 -2.13505,-0.544938 -3.22625,-2.933721 -5.03485,-4.018878 -0.83137,-0.498824 -2.282624,-0.846418 -3.043915,-1.354616 -0.956316,-0.638384 -2.239547,-1.972815 -3.321725,-2.33354 -0.791371,-0.263793 -1.829305,0.0517 -2.602084,-0.334688 -0.285578,-0.142787 -0.393108,-0.531796 -0.67731,-0.677309 -0.19154,-0.09807 -0.437097,0.05337 -0.645559,0 -0.244534,-0.0626 -0.432914,-0.275522 -0.67731,-0.338654 -0.674828,-0.174326 -3.425592,0.157962 -3.96993,0.338654 -0.650126,0.21581 -0.943451,0.713224 -1.571569,0.972309 -2.912592,1.201386 0.835522,-0.378206 -2.031926,0.338656 -0.154877,0.03872 -0.197284,0.264491 -0.338656,0.338654 -0.668875,0.350885 -1.310757,0.357134 -2.099392,0.882353 -0.265745,0.176983 -0.391732,0.534519 -0.67731,0.67731 -0.201935,0.100967 -0.653288,-0.224489 -0.677309,0 -0.09328,0.871799 0.610343,0.184951 0.830762,0.321455 0.378664,0.234508 0.590063,0.757198 0.977601,0.976278 0.982456,0.555398 2.198698,0.948047 3.360087,1.510718 z"
       id="path4" />
    <path
       style="fill:#b2b2b2;fill-opacity:1;fill-rule:evenodd;stroke:#000000;stroke-width:0.8;stroke-linejoin:bevel;stroke-opacity:1;stroke-dasharray:none"
       d="m 138.67202,84.565818 c 0.0531,0.69107 0.33127,3.40723 0.20769,4.39589 -0.12612,1.00892 -1.28958,6.20693 -1.01596,6.74134 0.6975,1.36232 0.37834,0.46626 1.01067,0.67731 1.12466,0.37538 2.0208,0.67474 3.03466,1.35065 0.59732,0.39821 1.43875,1.68171 2.04516,1.70253 0.0258,8e-4 0.62833,-0.61133 0.31616,0.15081 -1.06036,2.588772 -3.43739,4.250712 -5.0613,6.415912 -0.71945,0.27851 -0.0884,0.96221 -0.33865,1.35462 -0.3472,0.54436 -1.41779,0.36058 -1.77926,0.63895 -0.23666,0.18225 -0.42244,0.42244 -0.63365,0.63365 -0.45154,0.45154 -0.84376,0.97148 -1.35462,1.35462 -0.40387,0.3029 -0.94563,0.38136 -1.35462,0.67731 -0.0919,0.0665 -0.0274,1.49951 0,1.58215 0.43358,1.30936 4.30992,3.70007 5.60896,3.70007 0.58389,0 0.40679,-0.14824 0.90352,-0.3122 0.74279,-0.24517 1.0996,0.1542 1.64036,0.33469 1.4458,0.48256 3.08732,-0.26768 4.55067,0.33468 1.00437,0.41343 -0.19374,2.19648 -0.78181,2.49758 -0.0245,0.0125 -1.15309,0.4359 -0.96834,0.64556 0.37754,0.42847 1.8277,-0.20774 2.20919,-0.33865 0.43647,-0.14979 1.12989,0.20198 1.54246,0 0.26548,-0.12998 0.34956,-0.52518 0.62704,-0.62705 0.17096,-0.0628 0.36423,0 0.54635,0 0.45154,-0.22576 0.9163,-0.42683 1.35462,-0.6773 0.54302,-0.3103 3.64959,-1.98732 4.00035,-2.64442 0.10708,-0.20059 -1.48381,-2.20461 -1.6258,-2.28195 -0.63296,-0.34476 -1.48575,-0.41299 -2.18274,-0.65217 -0.48442,-0.16624 -3.8711,-2.46167 -4.01491,-2.67881 -0.27199,-0.41071 -0.36472,-0.92832 -0.66143,-1.32155 -0.28509,-0.37783 -0.84837,-0.55708 -1.00406,-1.00406 -0.14373,-0.41267 0.10599,-0.88702 0,-1.31096 -0.0612,-0.24488 -0.27743,-0.43243 -0.33865,-0.67731 -0.0622,-0.2486 0.12937,-0.94998 0,-1.2263 -0.12121,-0.25888 -0.47044,-0.21833 -0.41803,-0.62175 0.039,-0.30032 1.28246,-1.89292 1.33742,-1.93668 0.21808,-1.07906 0.91669,-0.1349 1.32419,-0.33865 0.2666,-0.1333 0.67523,-0.56385 0.95379,-0.63101 0.8418,-0.20296 1.46784,-0.12316 2.28857,-0.33866 1.53712,-0.403592 4.5135,-3.564732 5.71082,-4.759682 0.80257,-0.80097 0.83552,-1.96426 1.95785,-2.60076 0.18555,-0.10523 0.59574,0.12236 0.76859,0 1.00917,-0.71442 1.63888,-1.98288 2.6669,-2.66823 2.53205,-1.68803 -1.9364,1.68367 1.69327,-1.01596 0.77216,-0.57431 5.14529,-2.18371 4.27816,-3.83764 -0.85472,-1.63028 -2.34612,-2.4847 -3.32569,-3.95406 -0.14002,-0.21002 -0.16895,-0.49045 -0.33866,-0.67731 -0.26592,-0.2928 -0.81157,0.12567 -1.18661,0 -0.15137,-0.0507 -0.19603,-0.26692 -0.33865,-0.33865 -0.47608,-0.23944 -0.95719,0.0306 -1.63507,-0.33866 -0.2678,-0.14586 -0.77021,0.29959 -0.86648,0.33469 -0.86287,0.31456 -3.56615,0.0675 -4.63004,0.67731 -0.49812,0.28548 -0.50594,0.61969 -1.15354,0.8334 -0.35286,0.11645 -3.65187,0.8025 -4.18689,0.61514 -0.23377,-0.0819 -0.42682,-0.25921 -0.66143,-0.33866 -0.22569,-0.0764 -0.66438,0.12227 -0.8678,0 -0.80029,-0.48098 -3.22951,-2.74084 -3.32173,-3.65905 -0.0116,-0.1151 0.16414,-0.16306 0.24606,-0.24473 0.71084,-0.70874 1.63593,-1.71551 2.51874,-2.20258 0.43733,-0.24129 0.95589,-0.21889 1.43531,-0.64953 0.0296,-0.0266 -0.80257,0.0116 -1.44192,-0.20637 -1.34049,-0.45706 -3.80589,-0.93527 -5.19623,-0.93527 -1.96487,0 -1.89414,-0.17461 -3.50693,0.62837 -0.23911,0.11905 -1.05466,-0.0325 -1.2726,0 -2.32785,0.34728 -0.99078,0.26588 -3.04789,0.67731 -0.24624,0.0493 -0.76608,-0.1263 -0.99083,0 -2.5754,1.4472 -3.95707,1.41893 -5.95952,4.08105 -0.20846,0.27713 0.11734,0.6096 0.1971,0.79108 0.14031,0.31921 -0.16318,0.86355 0,1.16941 0.60695,1.13768 -0.0578,-0.68227 0.61646,0.61513 0.0954,0.18351 -0.0949,0.43667 0,0.62043 0.57896,1.12132 2.48172,1.06174 3.44211,1.31758 0.54078,0.14406 1.39101,0.54997 2.02001,0.33865 0.10234,-0.0344 1.48958,-0.60794 1.55702,-0.64159 0.13197,-0.0658 0.17152,-0.35204 0.31352,-0.3122 0.88953,0.24962 1.69239,0.74169 2.53859,1.11254 z"
       id="path5" />
    <path
       d="m 38.608927,138.94713 c 1.052367,0.95475 2.119726,1.88979 2.185396,1.92133 0.344511,0.16552 1.048992,-0.21186 1.361157,0 0.922292,0.62594 0.707681,2.40927 1.955436,3.23185 0.263937,0.174 2.650737,-1.08945 3.142961,-1.14825 0.713678,-0.0853 1.450843,0.13683 2.156458,0 1.366256,-0.26494 1.753495,-1.23636 2.750219,-2.07016 1.164605,-0.97424 3.750924,-1.36114 4.999178,-2.20555 0.33243,-0.22488 3.061604,-3.62399 3.361036,-4.07314 0.759083,-1.13862 0.787581,-2.42951 0.353466,-3.68143 -0.05782,-0.16674 -0.395694,-0.19892 -0.374654,-0.37414 0.02602,-0.21724 0.6445,-0.006 0.6165,-0.2222 -0.01175,-0.0909 -0.254783,-0.12592 -0.194303,-0.19482 0.218508,-0.24891 0.928983,-0.49065 1.198376,-0.63614 0.72478,-0.39142 1.190883,-1.21758 1.898592,-1.58905 0.324808,-0.1705 0.994573,-0.0948 1.30173,-0.26562 1.144459,-0.63637 2.368236,-1.23377 3.542419,-1.95543 0.315071,-0.19365 0.968181,0.18317 1.290877,0 0.872031,-0.495 1.4812,-1.0914 2.493905,-1.46296 0.800014,-0.29354 1.50003,0.77271 2.173511,0.99632 0.260564,0.0865 0.708116,-0.1268 0.949812,0 1.424227,0.74713 3.07892,0.60561 4.723743,1.01596 1.556985,0.38843 5.570141,2.09453 7.165971,1.45779 0.27137,-0.10828 0.490638,-0.57148 0.731738,-0.73174 0.431745,-0.28697 1.233212,-0.38316 1.497583,-0.87953 0.286816,-0.53852 -0.461758,-1.90528 -0.552938,-2.35335 -0.146824,-0.72151 0.153406,-1.53721 0,-2.25722 -0.0669,-0.31403 -1.082812,-0.16382 -1.159102,-0.16382 -0.306377,0 -3.23701,-0.11498 -3.617867,-0.30541 -0.285578,-0.14279 -0.382118,-0.5562 -0.677478,-0.67747 -0.449519,-0.18457 -1.055455,0.2725 -1.457792,0 -1.390181,-0.94153 -0.128148,-0.33919 -0.956531,-0.95653 -3.601171,-2.6838 -4.313237,-4.73047 -9.468673,-4.73047 -0.128782,0 -2.584121,2.82456 -3.096968,3.25149 -1.595298,1.32803 -3.460671,2.39731 -5.391919,3.03599 -1.528272,0.50542 -2.707622,2.80468 -4.054533,3.38119 -0.665579,0.28487 -1.399389,0.39208 -2.061373,0.68522 -0.660221,0.29236 -1.834751,1.40126 -2.370398,1.69344 -0.754731,0.41167 -1.62878,0.58199 -2.370915,1.01596 -1.771973,1.03618 -3.215237,2.64555 -5.392952,2.98173 -2.850408,-0.29786 -1.304997,-0.39549 -3.192053,-1.48001 -0.519218,-0.2984 -1.403598,0.14787 -1.76475,0.33434 -0.277165,0.14311 -0.769212,-0.13851 -1.049032,0 -0.204858,0.10141 -1.728214,1.19638 -2.645833,1.93529 z"
       style="fill:#b2b2b2;fill-rule:evenodd;stroke:#000000;stroke-width:0.8;stroke-linejoin:bevel;stroke-dasharray:none"
       id="path21" />
    <path
       style="fill:#b2b2b2;fill-opacity:1;fill-rule:evenodd;stroke:#000000;stroke-width:0.8;stroke-linejoin:bevel;stroke-opacity:1;stroke-dasharray:none"
       d="m 102.19919,135.27271 c 1.61912,2.21777 4.22531,3.02656 6.34978,4.61814 1.26214,0.94555 0.0431,0.69701 2.0478,1.36785 0.97288,0.32555 2.34788,-0.16782 3.35479,0 4.09621,0.6827 -4.00809,0.0359 3.04789,0.67731 3.11946,0.28358 6.41591,0 9.55376,0 1.71435,0 3.6647,0.23957 5.34175,0 1.02197,-0.146 2.03365,-0.75844 3.03598,-1.012 2.26207,-0.57222 5.35037,0.30037 7.75334,0 3.36632,-0.42079 -0.3355,-0.33865 2.37058,-0.33865 4.13692,0 8.17098,0.33865 12.3384,0.33865 1.32035,0 3.37965,0.44646 4.61417,0 0.51954,-0.18789 0.94322,-0.59048 1.51601,-0.81092 1.33024,-0.51195 1.53065,0.33032 3.32569,-1.01596 0.47316,-0.35487 1.49213,-1.1776 1.67872,-1.67872 0.14233,-0.38225 0,-0.81577 0,-1.22365 0,-2.4708 -0.25981,-3.26557 -2.34148,-4.65518 -0.97167,-0.64864 -0.77706,-1.00803 -1.91022,-1.00803 -1.31492,0 -2.38137,-0.0711 -3.59159,0.33866 -1.08588,0.3677 -2.53967,-0.36303 -3.62731,0 -0.74031,0.24709 -0.93738,0.63758 -1.68401,1.01199 -0.345,0.17301 -0.93667,-0.123 -1.30567,0 -1.28524,0.42841 -2.72025,0.24708 -4.01491,0.66144 -0.43447,0.13905 -0.64183,0.51763 -1.19058,0.62174 -0.92645,0.17578 -2.52559,-0.4151 -3.35744,0 -0.58042,0.28964 -1.04672,0.5294 -1.83085,0.33337 -3.0229,-0.75573 -3.85371,-2.39956 -5.39731,-4.73191 -0.51961,-0.78511 -2.0596,-2.47964 -2.89179,-2.89179 -0.83462,-0.41335 -2.05938,-0.70599 -2.97381,-1.01199 -0.21159,-0.0708 -0.46965,0.0995 -0.66937,0 -1.01661,-0.50629 0.61365,-0.26324 -0.99612,-0.66408 -0.63454,-0.15801 -1.69336,0.1004 -2.27931,0 -0.24879,-0.0426 -0.43242,-0.27744 -0.67731,-0.33866 -0.43549,-0.10887 -0.91134,0.10948 -1.34668,0 -1.31309,-0.33021 -2.71469,-0.40747 -4.06385,-0.67731 -0.51418,-0.10283 -1.13539,-0.49197 -1.64168,-0.65217 -0.46422,-0.14689 -1.28424,-0.0884 -1.65888,-0.33865 -3.70654,-2.47638 -2.34187,-4.77365 -0.24605,-7.91738 0.50062,-0.75094 1.17426,-1.93182 2.02531,-2.35735 2.53924,-1.26962 7.66867,-3.12762 7.66867,-6.60509 0,-0.98955 -1.60777,-2.623 -2.49493,-2.87591 -0.20567,-0.0586 -0.43945,0.0698 -0.64159,0 -0.42076,-0.14537 -0.97118,-1.08604 -1.30435,-1.30435 -0.18112,-0.11868 -1.21286,0 -1.39695,0 -0.11699,0 -2.51287,-0.24614 -2.95529,0 -1.16486,0.64805 -2.28113,0.45216 -3.33892,0.99083 -4.11766,2.09687 2.00012,-0.60056 -1.98827,0.9948 -2.10224,0.84089 -3.62666,3.04532 -4.78747,4.76894 -0.17243,0.25603 -0.51404,0.3801 -0.65482,0.65482 -0.15565,0.30375 -0.11696,4.91402 0,5.27428 0.57961,1.78527 3.5357,5.48443 2.60606,7.40674 -0.86897,1.79683 -2.97648,1.48267 -4.37209,2.41688 -0.61554,0.41204 -1.08894,1.02644 -1.7356,1.38769 -0.25009,1.4847 -1.16367,0.0839 -1.67211,0.33866 -1.50797,0.75556 -3.853954,1.29421 -5.135374,2.57562 -0.36855,0.36856 0.75529,-0.60749 0.13361,-0.31352 -0.37667,0.17812 -0.23676,0.82267 -0.50004,1.14561 -0.25719,0.31545 -0.69035,0.4331 -1.01596,0.67731 -0.59263,0.44447 -1.13109,0.96413 -1.83879,1.1919 -0.33467,0.10772 -0.95343,-0.14861 -1.2898,0 -0.54271,0.23977 -0.83026,0.87316 -1.36123,1.19191 -0.96619,0.58002 -2.00932,1.04952 -3.087579,1.3771 -0.847887,0.2576 -1.774211,0.15842 -2.629863,0.38893 -1.194224,0.32172 -2.288744,1.06577 -3.549259,1.31096 -0.934916,0.18186 -1.97758,-0.0577 -2.834907,0.35718 -0.246144,0.11911 -0.31868,0.50131 -0.580739,0.57941 -2.175441,0.64836 -3.902282,-2.14681 -5.959525,-1.3189 -0.955114,0.38438 -1.078074,0.93976 -2.399687,1.58877 -1.352174,0.66401 -2.82308,1.05404 -4.2517,1.53188 -5.877044,1.96575 -1.760969,-0.53179 -3.045246,1.62052 -0.08084,0.13548 -0.327522,0.17707 -0.334685,0.33468 -0.01534,0.3375 0.733375,0.18822 0.941883,0.34527 1.151654,0.86741 1.813165,1.80568 2.861365,2.88914 0.102312,0.10576 2.833664,0.33337 3.189439,0.33337 0.457948,0 1.572958,0.22039 2.001501,0 0.140028,-0.072 0.185264,-0.28369 0.334685,-0.33337 0.865087,-0.28759 2.002163,0.22845 2.886501,0 1.038053,-0.26815 2.385065,-0.61725 3.386545,-1.01596 0.146002,-0.0581 0.184665,-0.28252 0.333361,-0.33336 0.202362,-0.0692 0.438621,0.0674 0.641594,0 0.142634,-0.0473 0.176233,-0.27129 0.318809,-0.31881 1.430341,-0.47678 3.009276,-0.64746 4.362823,-1.35462 0.153141,-0.08 3.029503,-0.26197 3.297913,-0.33865 2.280211,-0.65149 4.096921,-2.33703 5.930421,-3.57704 0.87845,-0.5941 1.98116,-0.69502 2.89179,-1.2554 0.01,-0.006 2.524104,0.22226 2.737024,0.33865 0.13789,0.0754 0.17786,0.31066 0.33336,0.33336 0.54169,0.0791 1.09445,-0.03 1.64167,-0.045 z"
       id="path7" />
    <path
       style="fill:#b2b2b2;fill-opacity:1;fill-rule:evenodd;stroke:#000000;stroke-width:0.8;stroke-linejoin:bevel;stroke-opacity:1;stroke-dasharray:none"
       d="m 48.747349,50.329962 c -0.951066,0.648097 -3.711827,0.906087 -4.22392,2.26872 -0.467743,1.244618 0.184732,7.961855 0,9.815686 -0.18901,1.89674 -1.385496,3.23316 -1.693272,5.07982 -0.09279,0.55675 0.07982,1.13452 0,1.69327 -0.410835,2.87584 -0.270587,-0.30351 -1.030515,3.08493 -0.33855,1.50956 0,4.26407 0,5.64998 0,0.67731 0.132831,1.36777 0,2.03193 -0.0495,0.24751 -0.289153,0.42979 -0.338656,0.67731 -0.213485,1.06742 0.298103,2.34317 0,3.38654 -0.354042,1.23915 -1.045147,2.25464 -0.67731,3.71594 0.460526,1.8295 1.631389,6.167 4.20937,4.89858 0.848143,-0.4173 1.685809,-1.03299 2.154955,-1.96578 0.100054,-0.19894 0.09796,-0.46807 0,-0.66805 -0.660739,-1.34878 -1.29934,0.002 -1.865247,-0.004 -0.450892,-0.005 -0.300291,-0.82957 -0.300291,-0.93924 0,-0.97302 -0.125233,-0.69009 0.677309,-1.69327 0.992714,-1.24089 2.86856,-1.87376 4.020201,-3.0254 0.178485,-0.17849 0.187203,-0.47537 0.338654,-0.67731 0.62248,-0.82997 1.400471,-1.52864 2.031925,-2.37058 0.690648,-0.92086 1.883244,-1.21034 2.670874,-1.99489 0.176461,-0.17577 0.184965,-0.469 0.334687,-0.66805 0.704131,-0.93608 2.217756,-2.09114 2.702621,-3.04259 0.156012,-0.30614 0.177951,-0.66919 0.334685,-0.97496 0.218466,-0.4262 0.750303,-0.61747 1.015965,-1.01596 0.280033,-0.42005 0.383879,-0.94382 0.677307,-1.35462 0.278374,-0.38972 0.709361,-0.64804 1.015966,-1.01596 0.964806,-1.15777 1.878314,-2.94688 2.350738,-4.36415 0.143407,-0.43022 -0.07512,-1.28842 0,-1.6602 0.186103,-0.92106 0.944372,-4.174281 0.67731,-5.242531 -0.09786,-0.391417 -0.544735,-0.62384 -0.672018,-1.006703 -0.124759,-0.375266 0.180157,-0.922049 0,-1.273924 -0.197985,-0.386688 -0.672018,0.616914 -0.672018,-0.332038 0,-0.15715 0.282146,-0.184796 0.333362,-0.333365 0.182827,-0.530339 0.196254,-2.398405 -0.302938,-2.882529 -0.17695,-0.171614 -0.487645,-0.155901 -0.661434,-0.330719 -0.528881,-0.532019 -0.902785,-1.427353 -1.693273,-1.693272 -0.594674,-0.200049 -1.396055,0.153402 -2.005467,0 -0.244785,-0.06162 -0.427429,-0.302956 -0.67731,-0.338654 -1.159324,-0.165618 -1.707695,0.03686 -2.688071,-0.338656 -0.390316,-0.149503 -0.342281,-1.010097 -0.661435,-1.152218 -0.553796,-0.246613 -1.592135,-0.09024 -2.07029,-0.317489 -0.253452,-0.12046 -0.344294,-0.469792 -0.595291,-0.595292 -0.831533,-0.415766 -2.374824,0.763127 -2.717173,0.969664 z"
       id="path8" />
    <path
       style="fill:none;fill-opacity:1;fill-rule:evenodd;stroke:#dc9931;stroke-width:0.7;stroke-linejoin:bevel;stroke-dasharray:none;stroke-opacity:1;marker-start:url(#Dot);marker-end:url(#Dot)"
       d="M 89.773489,56.917851 91.501156,22.626436"
       id="path22" />
    <path
       style="fill:none;fill-opacity:1;fill-rule:evenodd;stroke:#dc9931;stroke-width:0.7;stroke-linejoin:bevel;stroke-dasharray:5.6, 0.7;stroke-dashoffset:0;stroke-opacity:1;marker-start:url(#Dot-3);marker-end:url(#Dot-3)"
       d="M 168.18793,68.451638 160.03779,44.397694"
       id="path22-4" />
    <path
       style="fill:none;fill-opacity:1;fill-rule:evenodd;stroke:#74240f;stroke-width:0.7;stroke-linejoin:bevel;stroke-dasharray:none;stroke-dashoffset:0;stroke-opacity:1;marker-start:url(#Square);marker-end:url(#marker25)"
       d="m 119.64037,108.09799 38.51369,27.45086"
       id="path23" />
    <path
       style="fill:none;fill-opacity:1;fill-rule:evenodd;stroke:#74240f;stroke-width:0.7;stroke-linejoin:bevel;stroke-dasharray:5.6, 0.7;stroke-dashoffset:0;stroke-opacity:1;marker-start:url(#Square-3);marker-end:url(#marker25-8)"
       d="M 60.43747,28.521667 94.981386,93.846438"
       id="path23-2" />
    <path
       style="fill:none;fill-opacity:1;fill-rule:evenodd;stroke:#e94121;stroke-width:0.7;stroke-linejoin:bevel;stroke-dasharray:5.60001, 0.7;stroke-dashoffset:0;stroke-opacity:1;marker-start:url(#marker38);marker-end:url(#ColoredTriangle)"
       d="m 107.38376,88.627408 16.82615,-24.779"
       id="path26" />
    <path
       style="fill:none;fill-opacity:1;fill-rule:evenodd;stroke:#e94121;stroke-width:0.7;stroke-linejoin:bevel;stroke-dasharray:none;stroke-dashoffset:0;stroke-opacity:1;marker-start:url(#marker38);marker-end:url(#marker38)"
       d="m 78.770539,137.6337 28.541631,-9.08258"
       id="path26-0" />
    <path
       style="fill:none;fill-opacity:1;fill-rule:evenodd;stroke:#366a16;stroke-width:0.7;stroke-linejoin:bevel;stroke-dasharray:5.6, 0.7;stroke-dashoffset:0;stroke-opacity:1;marker-start:url(#marker31);marker-end:url(#SemiCircleEmpty)"
       d="M 110.79917,48.104893 143.9639,38.188628"
       id="path29"
       sodipodi:nodetypes="cc" />
    <path
       style="fill:none;fill-opacity:1;fill-rule:evenodd;stroke:#366a16;stroke-width:0.7;stroke-linejoin:bevel;stroke-dasharray:none;stroke-dashoffset:0;stroke-opacity:1;marker-start:url(#marker34);marker-end:url(#marker33)"
       d="m 142.76498,74.168058 1.88656,-11.90824"
       id="path32" />
    <path
       style="fill:none;fill-opacity:1;fill-rule:evenodd;stroke:#247db1;stroke-width:0.7;stroke-linejoin:bevel;stroke-dasharray:none;stroke-dashoffset:0;stroke-opacity:1;marker-start:url(#ArrowWideHeavy);marker-end:url(#marker36)"
       d="M 61.39435,96.653034 54.510677,69.087957"
       id="path35"
       sodipodi:nodetypes="cc" />
    <path
       style="fill:none;fill-opacity:1;fill-rule:evenodd;stroke:#247db1;stroke-width:0.7;stroke-linejoin:bevel;stroke-dasharray:5.6, 0.7;stroke-dashoffset:0;stroke-opacity:1;marker-start:url(#ArrowWideHeavy-2);marker-end:url(#marker36-2)"
       d="M 80.494742,126.2337 96.201536,108.63954"
       id="path35-8"
       sodipodi:nodetypes="cc" />
    <path
       style="fill:#000000;fill-opacity:1;fill-rule:evenodd;stroke:#000000;stroke-width:0.7;stroke-linejoin:bevel;stroke-dasharray:5.5999999,0.69999999;stroke-dashoffset:0;stroke-opacity:1;marker-start:url(#Dot);marker-end:url(#Dot-3)"
       d="M 5.6361859,70.079788 15.840104,59.736495"
       id="path42" />
    <path
       style="fill:#000000;fill-opacity:1;fill-rule:evenodd;stroke:#000000;stroke-width:0.7;stroke-linejoin:bevel;stroke-dasharray:none;stroke-dashoffset:0;stroke-opacity:1;marker-start:url(#Dot);marker-end:url(#Dot-3)"
       d="M 5.6361859,83.922548 15.840104,73.579258"
       id="path41" />
    <text
       xml:space="preserve"
       style="font-size:6.2947px;font-family:'DejaVu Math TeX Gyre';-inkscape-font-specification:'DejaVu Math TeX Gyre';fill:#000000;fill-opacity:1;fill-rule:evenodd;stroke:none;stroke-width:1.3878;stroke-linejoin:bevel;stroke-dasharray:none;stroke-dashoffset:0;stroke-opacity:1"
       x="13.981068"
       y="67.199409"
       id="text43"><tspan
         sodipodi:role="line"
         id="tspan43"
         style="stroke:none;stroke-width:1.3878"
         x="13.981068"
         y="67.199409">CF = 0</tspan></text>
    <text
       xml:space="preserve"
       style="font-size:6.2947px;font-family:'DejaVu Math TeX Gyre';-inkscape-font-specification:'DejaVu Math TeX Gyre';fill:#000000;fill-opacity:1;fill-rule:evenodd;stroke:none;stroke-width:1.3878;stroke-linejoin:bevel;stroke-dasharray:none;stroke-dashoffset:0;stroke-opacity:1"
       x="14.220267"
       y="81.042168"
       id="text42"><tspan
         sodipodi:role="line"
         id="tspan42"
         style="stroke:none;stroke-width:1.3878"
         x="14.220267"
         y="81.042168">CF = 1</tspan></text>
    <path
       style="fill:none;fill-opacity:1;fill-rule:evenodd;stroke:#74240f;stroke-width:0.7;stroke-linejoin:bevel;stroke-dasharray:none;stroke-dashoffset:0;stroke-opacity:1;marker-start:url(#marker25);marker-end:url(#marker25)"
       d="M 5.4657449,106.79688 H 18.938746"
       id="path47" />
    <path
       style="fill:none;fill-opacity:1;fill-rule:evenodd;stroke:#247db1;stroke-width:0.7;stroke-linejoin:bevel;stroke-dasharray:none;stroke-dashoffset:0;stroke-opacity:1;marker-start:url(#ArrowWideHeavy-2);marker-end:url(#ArrowWideHeavy-2)"
       d="M 5.4658909,137.14688 H 18.938599"
       id="path48" />
    <path
       style="fill:none;fill-opacity:1;fill-rule:evenodd;stroke:#e94121;stroke-width:0.7;stroke-linejoin:bevel;stroke-dasharray:none;stroke-dashoffset:0;stroke-opacity:1;marker-start:url(#marker38);marker-end:url(#marker38)"
       d="M 5.4658909,117.40342 H 18.938599"
       id="path49" />
    <path
       style="fill:none;fill-opacity:1;fill-rule:evenodd;stroke:#366a16;stroke-width:0.7;stroke-linejoin:bevel;stroke-dasharray:none;stroke-dashoffset:0;stroke-opacity:1;marker-start:url(#marker51);marker-end:url(#marker52)"
       d="M 5.4658909,127.40344 H 18.938599"
       id="path50" />
    <path
       style="fill:none;fill-opacity:1;fill-rule:evenodd;stroke:#dc9931;stroke-width:0.700008;stroke-linejoin:bevel;stroke-dasharray:none;stroke-dashoffset:0;stroke-opacity:1;marker-start:url(#Dot);marker-end:url(#Dot)"
       d="M 5.4657449,96.796898 H 18.938746"
       id="path44" />
    <text
       xml:space="preserve"
       style="font-size:6.66136px;font-family:'DejaVu Math TeX Gyre';-inkscape-font-specification:'DejaVu Math TeX Gyre';fill:#000000;fill-opacity:1;fill-rule:evenodd;stroke:none;stroke-width:1.46865;stroke-linejoin:bevel;stroke-dasharray:none;stroke-dashoffset:0;stroke-opacity:1"
       x="25.34269"
       y="109.9896"
       id="text53"><tspan
         sodipodi:role="line"
         id="tspan53"
         style="stroke-width:1.46865"
         x="25.34269"
         y="109.9896">C<tspan
   style="font-size:4.32988px;baseline-shift:sub;stroke-width:1.46865"
   id="tspan54">2</tspan></tspan></text>
    <text
       xml:space="preserve"
       style="font-size:6.66136px;font-family:'DejaVu Math TeX Gyre';-inkscape-font-specification:'DejaVu Math TeX Gyre';fill:#000000;fill-opacity:1;fill-rule:evenodd;stroke:none;stroke-width:1.46865;stroke-linejoin:bevel;stroke-dasharray:none;stroke-dashoffset:0;stroke-opacity:1"
       x="25.15617"
       y="99.989609"
       id="text53-0"><tspan
         sodipodi:role="line"
         id="tspan53-6"
         style="stroke-width:1.46865"
         x="25.15617"
         y="99.989609">S<tspan
   style="font-size:65%;baseline-shift:sub"
   id="tspan55">2</tspan></tspan></text>
    <text
       xml:space="preserve"
       style="font-size:6.66136px;font-family:'DejaVu Math TeX Gyre';-inkscape-font-specification:'DejaVu Math TeX Gyre';fill:#000000;fill-opacity:1;fill-rule:evenodd;stroke:none;stroke-width:1.46865;stroke-linejoin:bevel;stroke-dasharray:none;stroke-dashoffset:0;stroke-opacity:1"
       x="25.34269"
       y="119.9896"
       id="text53-8"><tspan
         sodipodi:role="line"
         id="tspan53-5"
         style="stroke-width:1.46865"
         x="25.34269"
         y="119.9896">L<tspan
   style="font-size:65%;baseline-shift:sub"
   id="tspan56">2</tspan></tspan></text>
    <text
       xml:space="preserve"
       style="font-size:6.66136px;font-family:'DejaVu Math TeX Gyre';-inkscape-font-specification:'DejaVu Math TeX Gyre';fill:#000000;fill-opacity:1;fill-rule:evenodd;stroke:none;stroke-width:1.46865;stroke-linejoin:bevel;stroke-dasharray:none;stroke-dashoffset:0;stroke-opacity:1"
       x="25.34269"
       y="129.98961"
       id="text53-2"><tspan
         sodipodi:role="line"
         id="tspan53-8"
         style="stroke-width:1.46865"
         x="25.34269"
         y="129.98961">F<tspan
   style="font-size:65%;baseline-shift:sub"
   id="tspan57">ss</tspan></tspan></text>
    <text
       xml:space="preserve"
       style="font-size:6.66136px;font-family:'DejaVu Math TeX Gyre';-inkscape-font-specification:'DejaVu Math TeX Gyre';fill:#000000;fill-opacity:1;fill-rule:evenodd;stroke:none;stroke-width:1.46865;stroke-linejoin:bevel;stroke-dasharray:none;stroke-dashoffset:0;stroke-opacity:1"
       x="25.34269"
       y="139.98961"
       id="text53-84"><tspan
         sodipodi:role="line"
         id="tspan53-1"
         style="stroke-width:1.46865"
         x="25.34269"
         y="139.98961">F<tspan
   style="font-size:65%;baseline-shift:sub"
   id="tspan58">sv</tspan></tspan></text>
    <rect
       style="fill:#b2b2b2;fill-opacity:1;fill-rule:evenodd;stroke:#000000;stroke-width:0.866371;stroke-linejoin:bevel;stroke-dasharray:none;stroke-dashoffset:0;stroke-opacity:1"
       id="rect39-8"
       width="8.3576622"
       height="8.3576622"
       x="7.9831853"
       y="20.677185" />
    <rect
       style="fill:none;fill-opacity:1;fill-rule:evenodd;stroke:#000000;stroke-width:0.866371;stroke-linejoin:bevel;stroke-dasharray:none;stroke-dashoffset:0;stroke-opacity:1"
       id="rect38-6"
       width="8.3576622"
       height="8.3576622"
       x="7.9831853"
       y="34.368511" />
    <text
       xml:space="preserve"
       style="font-size:7.00767px;font-family:'DejaVu Math TeX Gyre';-inkscape-font-specification:'DejaVu Math TeX Gyre';fill:#000000;fill-opacity:1;fill-rule:evenodd;stroke:none;stroke-width:1.545;stroke-linejoin:bevel;stroke-dasharray:none;stroke-dashoffset:0;stroke-opacity:1"
       x="18.099197"
       y="27.361259"
       id="text39-4"><tspan
         sodipodi:role="line"
         id="tspan39-72"
         style="fill:#000000;fill-opacity:1;stroke:none;stroke-width:1.545"
         x="18.099197"
         y="27.361259">Pore</tspan></text>
    <text
       xml:space="preserve"
       style="font-size:7.00767px;font-family:'DejaVu Math TeX Gyre';-inkscape-font-specification:'DejaVu Math TeX Gyre';fill:#000000;fill-opacity:1;fill-rule:evenodd;stroke:none;stroke-width:1.545;stroke-linejoin:bevel;stroke-dasharray:none;stroke-dashoffset:0;stroke-opacity:1"
       x="18.099197"
       y="41.052578"
       id="text39-0-3"><tspan
         sodipodi:role="line"
         id="tspan39-7-4"
         style="fill:#000000;fill-opacity:1;stroke:none;stroke-width:1.545"
         x="18.099197"
         y="41.052578">Solid</tspan></text>
  </g>
</svg>
