<?xml version="1.0" encoding="UTF-8" standalone="no"?>
<!-- Created with Inkscape (http://www.inkscape.org/) -->

<svg
   width="140mm"
   height="140mm"
   viewBox="0 0 140 140"
   version="1.1"
   id="svg1"
   inkscape:version="1.3.2 (091e20ef0f, 2023-11-25)"
   sodipodi:docname="web.svg"
   inkscape:export-filename="../images/web.png"
   inkscape:export-xdpi="200"
   inkscape:export-ydpi="200"
   xmlns:inkscape="http://www.inkscape.org/namespaces/inkscape"
   xmlns:sodipodi="http://sodipodi.sourceforge.net/DTD/sodipodi-0.dtd"
   xmlns="http://www.w3.org/2000/svg"
   xmlns:svg="http://www.w3.org/2000/svg">
  <sodipodi:namedview
     id="namedview1"
     pagecolor="#ffffff"
     bordercolor="#000000"
     borderopacity="0.25"
     inkscape:showpageshadow="2"
     inkscape:pageopacity="0.0"
     inkscape:pagecheckerboard="0"
     inkscape:deskcolor="#d1d1d1"
     inkscape:document-units="mm"
     inkscape:zoom="1.5625561"
     inkscape:cx="197.11293"
     inkscape:cy="249.27105"
     inkscape:window-width="1916"
     inkscape:window-height="1030"
     inkscape:window-x="0"
     inkscape:window-y="0"
     inkscape:window-maximized="0"
     inkscape:current-layer="layer1"
     showgrid="true">
    <inkscape:grid
       id="grid1"
       units="px"
       originx="0"
       originy="0"
       spacingx="0.26458334"
       spacingy="0.26458334"
       empcolor="#0099e5"
       empopacity="0.30196078"
       color="#0099e5"
       opacity="0.14901961"
       empspacing="5"
       dotted="false"
       gridanglex="30"
       gridanglez="30"
       visible="true" />
  </sodipodi:namedview>
  <defs
     id="defs1">
    <marker
       style="overflow:visible"
       id="Dot"
       refX="0"
       refY="0"
       orient="auto"
       inkscape:stockid="Dot"
       markerWidth="1"
       markerHeight="1"
       viewBox="0 0 1 1"
       inkscape:isstock="true"
       inkscape:collect="always"
       preserveAspectRatio="xMidYMid">
      <path
         transform="scale(0.5)"
         style="fill:context-stroke;fill-rule:evenodd;stroke:none"
         d="M 5,0 C 5,2.76 2.76,5 0,5 -2.76,5 -5,2.76 -5,0 c 0,-2.76 2.3,-5 5,-5 2.76,0 5,2.24 5,5 z"
         sodipodi:nodetypes="sssss"
         id="path17" />
    </marker>
    <marker
       style="overflow:visible"
       id="marker80"
       refX="0"
       refY="0"
       orient="auto"
       inkscape:stockid="Dot"
       markerWidth="1"
       markerHeight="1"
       viewBox="0 0 1 1"
       inkscape:isstock="true"
       inkscape:collect="always"
       preserveAspectRatio="xMidYMid">
      <path
         transform="scale(0.5)"
         style="fill:context-stroke;fill-rule:evenodd;stroke:none"
         d="M 5,0 C 5,2.76 2.76,5 0,5 -2.76,5 -5,2.76 -5,0 c 0,-2.76 2.3,-5 5,-5 2.76,0 5,2.24 5,5 z"
         sodipodi:nodetypes="sssss"
         id="path80" />
    </marker>
  </defs>
  <g
     inkscape:label="Слой 1"
     inkscape:groupmode="layer"
     id="layer1">
    <path
       style="fill:none;fill-rule:evenodd;stroke:#000000;stroke-width:0.5;stroke-linejoin:bevel;stroke-dasharray:none"
       d="M 7.7544862,70.743668 H 133.0193"
       id="path62" />
    <path
       style="fill:none;fill-rule:evenodd;stroke:#000000;stroke-width:0.5;stroke-linejoin:bevel;stroke-dasharray:none"
       d="M 128.25169,94.712059 12.522096,46.775284"
       id="path66" />
    <path
       style="fill:none;fill-rule:evenodd;stroke:#000000;stroke-width:0.5;stroke-linejoin:bevel;stroke-dasharray:none"
       d="M 114.67469,115.03148 26.099084,26.455872"
       id="path67" />
    <path
       style="fill:none;fill-rule:evenodd;stroke:#000000;stroke-width:0.5;stroke-linejoin:bevel;stroke-dasharray:none"
       d="M 94.355286,128.60849 46.418511,12.878867"
       id="path68" />
    <path
       style="fill:none;fill-rule:evenodd;stroke:#000000;stroke-width:0.5;stroke-linejoin:bevel;stroke-dasharray:none"
       d="M 70.386903,133.37609 V 8.1112588"
       id="path69" />
    <path
       style="fill:none;fill-rule:evenodd;stroke:#000000;stroke-width:0.5;stroke-linejoin:bevel;stroke-dasharray:none"
       d="M 46.418511,128.60849 94.355286,12.878867"
       id="path70" />
    <path
       style="fill:none;fill-rule:evenodd;stroke:#000000;stroke-width:0.5;stroke-linejoin:bevel;stroke-dasharray:none"
       d="M 26.099084,115.03148 114.67469,26.455872"
       id="path71" />
    <path
       style="fill:none;fill-rule:evenodd;stroke:#000000;stroke-width:0.5;stroke-linejoin:bevel;stroke-dasharray:none"
       d="M 12.522096,94.712059 128.25169,46.775284"
       id="path61" />
    <path
       style="fill:none;fill-rule:evenodd;stroke:#000000;stroke-width:0.5;stroke-linejoin:bevel;stroke-dasharray:none;marker-start:url(#Dot);marker-mid:url(#marker80)"
       d="M 133.0193,70.743668 128.25169,46.775282 114.67469,26.455872 94.355286,12.878867 70.386903,8.1112598 46.418511,12.878867 26.099084,26.455872 l -13.57699,20.31941 -4.7676088,23.968386 4.7676088,23.968391 13.57699,20.319421 20.319427,13.57701 23.968392,4.7676 23.968383,-4.7676 20.319404,-13.57701 13.577,-20.319421 z"
       id="path81" />
    <path
       style="fill:none;fill-rule:evenodd;stroke:#000000;stroke-width:0.5;stroke-linejoin:bevel;stroke-dasharray:none;marker-start:url(#Dot);marker-mid:url(#marker80)"
       d="m 76.513067,70.743668 -0.466323,-2.344357 -1.327964,-1.987446 -1.987447,-1.327972 -2.344356,-0.466321 -2.344357,0.466321 -1.987456,1.327972 -1.327971,1.987446 -0.466315,2.344357 0.466315,2.344355 1.327971,1.987448 1.987456,1.327971 2.344357,0.466324 2.344356,-0.466324 1.987447,-1.327971 1.327964,-1.987448 z"
       id="path73" />
    <g
       id="g88"
       transform="matrix(0.81543669,0,0,0.81543669,-20.870322,-14.899911)"
       style="stroke-width:0.61316839;stroke-dasharray:none;stroke:#ea1b1b;stroke-opacity:1">
      <path
         d="m 119.425,105.028 -0.572,-2.875 v 0 l -1.629,-2.4374 v -3e-4 l -2.437,-1.6282 v -1e-4 l -2.875,-0.5718 v 1e-4 l -2.875,0.5718 v 3e-4 l -2.437,1.6282 v 0 l -1.629,2.4374 v 0 l -0.571,2.875 v 0 l 0.571,2.875 h 10e-4 l 1.628,2.437 v 0 l 2.437,1.629 v 0 l 2.875,0.572 v 0 l 2.875,-0.572 v 0 l 2.437,-1.629 v 0 l 1.629,-2.437 v -0.001 z"
         style="fill:none;fill-rule:evenodd;stroke:#ea1b1b;stroke-width:0.61316839;stroke-linejoin:bevel;stroke-dasharray:none;marker-start:url(#Dot);marker-mid:url(#marker80);stroke-opacity:1"
         id="path82" />
      <path
         d="m 130.974,105.028 -1.451,-7.2948 v -1e-4 c -0.011,-0.0161 -4.132,-6.1841 -4.132,-6.1841 v -2e-4 c -0.032,-0.0209 -6.184,-4.1319 -6.184,-4.1319 l -10e-4,-1e-4 -7.294,-1.4509 v 10e-5 l -7.295,1.4509 v 3e-4 c -0.031,0.0208 -6.1837,4.1318 -6.1837,4.1318 v 10e-5 c -0.0108,0.0161 -4.1321,6.1841 -4.1321,6.1841 l -10e-5,4e-4 c -0.0073,0.0369 -1.4509,7.2944 -1.4509,7.2944 h 1e-4 c 0.0073,0.037 1.4509,7.295 1.4509,7.295 h 3e-4 c 0.0208,0.031 4.1318,6.184 4.1318,6.184 h 4e-4 c 0.0312,0.021 6.1833,4.132 6.1833,4.132 h 10e-4 c 0.019,0.004 7.294,1.451 7.294,1.451 v 0 c 0.019,-0.004 7.295,-1.451 7.295,-1.451 v 0 l 6.184,-4.132 v 0 c 0.011,-0.017 4.132,-6.184 4.132,-6.184 v -10e-4 c 0.008,-0.037 1.451,-7.294 1.451,-7.294"
         style="fill:none;fill-rule:evenodd;stroke:#ea1b1b;stroke-width:0.61316839;stroke-linejoin:bevel;stroke-dasharray:none;marker-start:url(#Dot);marker-mid:url(#marker80);stroke-opacity:1"
         id="path83" />
      <path
         d="m 142.523,105.028 -2.33,-11.7145 v -1e-4 c -0.021,-0.0324 -6.635,-9.9309 -6.635,-9.9309 l -0.001,-2e-4 c -0.025,-0.0167 -9.93,-6.6355 -9.93,-6.6355 l -10e-4,-10e-5 c -0.029,-0.0059 -11.714,-2.3301 -11.714,-2.3301 v 1e-4 l -11.714,2.3301 -10e-4,2e-4 c -0.025,0.0167 -9.9303,6.6355 -9.9303,6.6355 v 0 c -0.0216,0.0324 -6.6357,9.931 -6.6357,9.931 v 3e-4 c -0.0059,0.0295 -2.3301,11.7142 -2.3301,11.7142 h 1e-4 c 0.0058,0.03 2.33,11.714 2.33,11.714 l 2e-4,10e-4 c 0.0167,0.025 6.6355,9.93 6.6355,9.93 h 3e-4 c 0.025,0.017 9.931,6.636 9.931,6.636 v 0 c 0.038,0.008 11.714,2.33 11.714,2.33 v 0 c 0.038,-0.007 11.715,-2.33 11.715,-2.33 v 0 l 9.931,-6.636 v 0 c 0.021,-0.032 6.635,-9.931 6.635,-9.931 v 0 c 0.006,-0.03 2.33,-11.714 2.33,-11.714"
         style="fill:none;fill-rule:evenodd;stroke:#ea1b1b;stroke-width:0.61316839;stroke-linejoin:bevel;stroke-dasharray:none;marker-start:url(#Dot);marker-mid:url(#marker80);stroke-opacity:1"
         id="path84" />
      <path
         d="m 154.073,105.028 -3.21,-16.1343 v -10e-5 c -0.032,-0.0485 -9.139,-13.6777 -9.139,-13.6777 v -2e-4 c -0.019,-0.0125 -13.678,-9.1391 -13.678,-9.1391 v 0 c -0.022,-0.0044 -16.134,-3.2093 -16.134,-3.2093 v 1e-4 c -0.022,0.0044 -16.134,3.2092 -16.134,3.2092 l -2e-4,2e-4 c -0.0188,0.0125 -13.6777,9.1391 -13.6777,9.1391 l -1e-4,10e-5 c -0.0324,0.0485 -9.1391,13.6777 -9.1391,13.6777 l -10e-5,3e-4 c -0.0044,0.0221 -3.2092,16.134 -3.2092,16.134 v 0 c 0.0044,0.022 3.2093,16.134 3.2093,16.134 h 1e-4 c 0.0125,0.019 9.1391,13.678 9.1391,13.678 h 2e-4 c 0.0188,0.013 13.6777,9.139 13.6777,9.139 h 2e-4 c 0.0571,0.012 16.1338,3.209 16.1338,3.209 v 0 c 0.057,-0.011 16.134,-3.209 16.134,-3.209 v 0 c 0.049,-0.032 13.678,-9.139 13.678,-9.139 v 0 c 0.033,-0.049 9.139,-13.678 9.139,-13.678 v 0 c 0.005,-0.022 3.21,-16.134 3.21,-16.134"
         style="fill:none;fill-rule:evenodd;stroke:#ea1b1b;stroke-width:0.61316839;stroke-linejoin:bevel;stroke-dasharray:none;marker-start:url(#Dot);marker-mid:url(#marker80);stroke-opacity:1"
         id="path85" />
      <path
         d="m 165.622,105.028 -4.088,-20.554 -0.001,-2e-4 C 161.49,84.4092 149.891,67.0493 149.891,67.0493 v -1e-4 C 149.878,67.0408 132.466,55.4065 132.466,55.4065 v -1e-4 C 132.451,55.4035 111.912,51.318 111.912,51.318 v 1e-4 l -20.5538,4.0884 -1e-4,10e-5 C 91.3456,55.4149 73.9335,67.0493 73.9335,67.0493 l -10e-5,2e-4 C 73.8902,67.1141 62.2907,84.474 62.2907,84.474 v 2e-4 c -0.003,0.0147 -4.0884,20.5538 -4.0884,20.5538 v 0 c 0.0029,0.015 4.0884,20.554 4.0884,20.554 h 10e-5 c 0.0083,0.012 11.6427,17.424 11.6427,17.424 l 2e-4,0.001 c 0.0125,0.008 17.4245,11.642 17.4245,11.642 h 3e-4 c 0.0762,0.016 20.5535,4.089 20.5535,4.089 v 0 c 0.077,-0.016 20.554,-4.089 20.554,-4.089 v 0 l 17.425,-11.643 v 0 c 0.043,-0.064 11.643,-17.424 11.643,-17.424 v 0 c 0.002,-0.015 4.088,-20.554 4.088,-20.554"
         style="fill:none;fill-rule:evenodd;stroke:#ea1b1b;stroke-width:0.61316839;stroke-linejoin:bevel;stroke-dasharray:none;marker-start:url(#Dot);marker-mid:url(#marker80);stroke-opacity:1"
         id="path86" />
      <path
         d="m 177.171,105.028 -4.967,-24.9737 v -3e-4 C 172.15,79.9732 158.057,58.8827 158.057,58.8827 v 0 C 158.051,58.8785 136.886,44.7363 136.886,44.7363 v 0 l -24.974,-4.9676 v 10e-5 l -24.9735,4.9675 h -1e-4 C 86.9322,44.7405 65.7669,58.8827 65.7669,58.8827 l -1e-4,2e-4 c -0.054,0.0808 -14.1463,21.1714 -14.1463,21.1714 v 1e-4 C 51.619,80.0617 46.653,105.028 46.653,105.028 v 0 c 0.0014,0.007 4.9675,24.973 4.9675,24.973 l 1e-4,0.001 c 0.0041,0.006 14.1463,21.171 14.1463,21.171 h 10e-5 c 0.0062,0.004 21.1715,14.146 21.1715,14.146 l 3e-4,0.001 c 0.0953,0.018 24.9732,4.967 24.9732,4.967 v 0 c 0.096,-0.019 24.974,-4.968 24.974,-4.968 v 0 l 21.171,-14.146 v 0 c 0.054,-0.081 14.147,-21.172 14.147,-21.172 v 0 c 0.001,-0.007 4.967,-24.973 4.967,-24.973"
         style="fill:none;fill-rule:evenodd;stroke:#ea1b1b;stroke-width:0.61316839;stroke-linejoin:bevel;stroke-dasharray:none;marker-start:url(#Dot);marker-mid:url(#marker80);stroke-opacity:1"
         id="path87" />
      <path
         d="m 188.721,105.028 -5.847,-29.3934 v -3e-4 l -16.65,-24.9182 v 0 l -24.919,-16.65 v 0 l -29.393,-5.8467 v 0 l -29.3932,5.8467 v 0 l -24.9185,16.65 -2e-4,3e-4 -16.6498,24.9182 v 0 l -5.8466,29.3934 v 0 l 5.8466,29.393 v 0 l 16.65,24.919 v 0 l 24.9185,16.65 h 3e-4 l 29.3929,5.846 v 0 l 29.393,-5.846 0.001,-0.001 24.918,-16.649 v -0.001 l 16.65,-24.918 v 0 z"
         style="fill:none;fill-rule:evenodd;stroke:#ea1b1b;stroke-width:0.61316839;stroke-linejoin:bevel;stroke-dasharray:none;marker-start:url(#Dot);marker-mid:url(#marker80);stroke-opacity:1"
         id="path88" />
    </g>
    <text
       xml:space="preserve"
       style="font-style:normal;font-variant:normal;font-weight:normal;font-stretch:normal;font-size:8.44089px;font-family:'DejaVu Math TeX Gyre';-inkscape-font-specification:'DejaVu Math TeX Gyre';fill:#000000;fill-rule:evenodd;stroke:none;stroke-width:1.5;stroke-linejoin:bevel;stroke-dasharray:none"
       x="101.70824"
       y="15.561458"
       id="text27"><tspan
         sodipodi:role="line"
         id="tspan27"
         style="font-style:normal;font-variant:normal;font-weight:normal;font-stretch:normal;font-family:'DejaVu Math TeX Gyre';-inkscape-font-specification:'DejaVu Math TeX Gyre';stroke:none;stroke-width:1.5;stroke-dasharray:none"
         x="101.70824"
         y="15.561458">(x, y, z)</tspan></text>
  </g>
</svg>
